<svg width="200" height="200" viewBox="0 0 200 200" fill="none" xmlns="http://www.w3.org/2000/svg">
<circle cx="100" cy="100" r="100" fill="#F0B90B"/>
<path fill-rule="evenodd" clip-rule="evenodd" d="M157.869 72.4578C152.604 66.7051 147.211 68.2208 145.495 69.2816L142.386 64.2532C146.089 61.9641 154.726 60.2679 162.23 68.4665C166.091 72.6845 166.941 77.3814 166.368 81.452C165.813 85.3975 163.939 88.7321 162.323 90.677L157.776 86.8993C158.82 85.6421 160.138 83.3016 160.514 80.6285C160.873 78.0806 160.393 75.2155 157.869 72.4578Z" fill="black"/>
<path fill-rule="evenodd" clip-rule="evenodd" d="M133.408 58.8326C132.299 59.1487 131.087 59.4629 130.069 59.521L129.732 53.6191C130.007 53.6033 130.626 53.4788 131.786 53.1477C132.44 52.9613 133.136 52.7491 133.92 52.5103C134.485 52.3381 135.095 52.1521 135.767 51.9521C138.861 51.031 142.782 49.9625 147.053 49.4424C155.628 48.3982 165.983 49.5447 174.092 58.755C181.003 66.6048 181.034 76.316 178.328 84.7918C175.636 93.2255 170.116 100.934 164.998 105.603L161.014 101.236C165.453 97.1857 170.352 90.3366 172.697 82.9937C175.028 75.6929 174.714 68.4082 169.655 62.6614C163.32 55.4669 155.275 54.3966 147.768 55.3106C143.998 55.7697 140.457 56.724 137.453 57.618C136.874 57.7904 136.293 57.9673 135.731 58.1383C134.891 58.3942 134.093 58.6371 133.408 58.8326Z" fill="black"/>
<path fill-rule="evenodd" clip-rule="evenodd" d="M49.9075 54.1653C42.3999 54.3493 35.2269 56.831 30.94 62.0033C24.9895 69.1828 24.9512 77.4068 27.5557 84.8363C30.2027 92.3872 35.4533 98.6634 39.2219 101.291L35.8411 106.14C30.9886 102.757 25.0073 95.4365 21.9769 86.792C18.9039 78.0261 18.7426 67.456 26.3885 58.2309C32.1513 51.2779 41.2597 48.4639 49.7626 48.2555C58.2244 48.0481 66.8824 50.3976 72.0878 54.745L68.2984 59.2823C64.5378 56.1417 57.4562 53.9803 49.9075 54.1653Z" fill="black"/>
<path fill-rule="evenodd" clip-rule="evenodd" d="M117.591 53.7066C111.488 51.3185 104.46 50.0864 91.0521 51.5282C80.0493 52.7113 72.6299 58.2108 67.6729 61.8851C67.0834 62.3221 66.5286 62.7333 66.0068 63.1083C62.1655 65.8693 56.6647 70.2911 51.0969 77.4497C47.7653 81.7331 45.0471 87.7748 43.148 93.2009C42.2083 95.8857 41.4913 98.3557 41.0127 100.288C40.7732 101.255 40.5978 102.069 40.4844 102.696C40.4276 103.009 40.3891 103.26 40.3656 103.451C40.3452 103.615 40.3409 103.697 40.3399 103.714C40.3397 103.718 40.3397 103.718 40.3397 103.715V103.855L40.3264 103.995C39.8348 109.168 39.9766 117.037 41.8279 124.73C43.6891 132.465 47.1732 139.604 53.0241 143.895C60.6646 149.498 67.5709 153.432 75.2776 156.109C82.993 158.789 91.6504 160.257 102.841 160.765C119.983 161.544 133.386 155.604 149.19 141.858C153.302 136.729 156.659 131.594 158.654 125.694C160.661 119.757 161.346 112.875 159.8 104.235C157.763 92.8451 154.273 85.1727 151.368 80.4059C149.914 78.0191 148.6 76.3511 147.679 75.303C147.218 74.7787 146.854 74.4091 146.62 74.1818C146.503 74.0682 146.417 73.9901 146.368 73.9461C146.345 73.9249 146.33 73.9116 146.323 73.9061C146.323 73.9059 146.323 73.9057 146.322 73.9055L146.321 73.904L146.32 73.9031L146.241 73.8379L146.156 73.7538C144.907 72.5273 143.913 71.5371 143.08 70.7068C139.601 67.239 138.922 66.5621 134.094 63.1134C127.545 58.4352 124.067 56.2404 117.591 53.7066ZM90.42 45.6505C104.501 44.1364 112.533 45.3792 119.746 48.2014C126.867 50.9881 130.796 53.493 137.53 58.3029C142.757 62.0362 143.7 62.9765 147.301 66.5668C148.115 67.3781 149.065 68.3248 150.23 69.4697C150.256 69.4919 150.285 69.5177 150.318 69.5471C150.421 69.6402 150.561 69.7692 150.733 69.9359C151.077 70.2692 151.55 70.7528 152.118 71.3993C153.256 72.6928 154.775 74.6364 156.416 77.3299C159.703 82.7236 163.454 91.0864 165.62 103.195C167.326 112.733 166.606 120.631 164.254 127.588C161.915 134.505 158.018 140.323 153.632 145.768L153.469 145.97L153.274 146.141C136.649 160.65 121.776 167.544 102.573 166.671C91.004 166.145 81.7474 164.614 73.338 161.693C64.9198 158.77 57.4905 154.501 49.5282 148.662C42.0779 143.199 38.0986 134.5 36.0804 126.113C34.0653 117.739 33.9005 109.259 34.4309 103.546C34.4655 102.482 34.8094 100.744 35.2745 98.8662C35.7982 96.7525 36.5683 94.1052 37.5683 91.248C39.5487 85.5897 42.5204 78.8476 46.4306 73.8203C52.4495 66.0816 58.4173 61.2831 62.5566 58.308C63.0286 57.9687 63.5502 57.58 64.1217 57.154C69.0585 53.4743 77.7236 47.0157 90.42 45.6505Z" fill="black"/>
<path fill-rule="evenodd" clip-rule="evenodd" d="M49.7779 67.4694C47.5018 67.4963 44.7833 68.3849 42.0542 71.3001C39.5086 74.0193 39.1957 77.1965 39.9081 80.3351C40.6415 83.5664 42.4236 86.445 43.5312 87.8243L38.9218 91.5258C37.4185 89.6537 35.1265 85.9763 34.1431 81.6437C33.1386 77.2184 33.4661 71.8238 37.7386 67.26C41.5123 63.229 45.7399 61.6051 49.7079 61.5582C53.5771 61.5124 56.9764 62.9653 59.2719 64.7099L55.6949 69.4165C54.2957 68.353 52.1529 67.4413 49.7779 67.4694Z" fill="black"/>
<path fill-rule="evenodd" clip-rule="evenodd" d="M76.4005 109.331C79.9918 109.331 82.9032 106.42 82.9032 102.828C82.9032 99.2369 79.9918 96.3255 76.4005 96.3255C72.8091 96.3255 69.8977 99.2369 69.8977 102.828C69.8977 106.42 72.8091 109.331 76.4005 109.331ZM76.4005 115.243C83.2567 115.243 88.8148 109.685 88.8148 102.828C88.8148 95.972 83.2567 90.4139 76.4005 90.4139C69.5442 90.4139 63.9861 95.972 63.9861 102.828C63.9861 109.685 69.5442 115.243 76.4005 115.243Z" fill="black"/>
<path fill-rule="evenodd" clip-rule="evenodd" d="M123.989 109.331C127.58 109.331 130.492 106.42 130.492 102.828C130.492 99.2369 127.58 96.3255 123.989 96.3255C120.397 96.3255 117.486 99.2369 117.486 102.828C117.486 106.42 120.397 109.331 123.989 109.331ZM123.989 115.243C130.845 115.243 136.403 109.685 136.403 102.828C136.403 95.972 130.845 90.4139 123.989 90.4139C117.133 90.4139 111.574 95.972 111.574 102.828C111.574 109.685 117.133 115.243 123.989 115.243Z" fill="black"/>
<path fill-rule="evenodd" clip-rule="evenodd" d="M74.8704 128.028C69.8475 133.798 68.0126 140.475 67.8243 143.927C67.6926 146.341 68.6204 148.871 70.0733 151.197C71.5157 153.506 73.304 155.337 74.4297 156.258L70.6862 160.833C69.1025 159.537 66.8708 157.229 65.0594 154.329C63.2585 151.445 61.6984 147.694 61.9215 143.605C62.1765 138.929 64.4672 130.975 70.4115 124.146C76.4608 117.197 86.1806 111.548 100.934 111.548C114.388 111.548 123.733 116.619 129.686 123.287C135.549 129.856 138.029 137.873 138.029 143.766C138.029 148.769 135.605 153.572 131.268 158.684C129.88 160.32 127.966 161.585 126.092 162.56C124.184 163.552 122.12 164.344 120.255 164.956C118.382 165.571 116.653 166.022 115.396 166.32C114.765 166.469 114.248 166.58 113.884 166.656C113.702 166.693 113.558 166.722 113.457 166.741C113.446 166.743 113.436 166.745 113.426 166.747C113.39 166.754 113.361 166.76 113.339 166.764L113.305 166.77L113.295 166.772L113.29 166.773C113.289 166.773 113.289 166.773 112.757 163.866C112.225 160.958 112.225 160.958 112.224 160.958L112.245 160.954C112.254 160.953 112.266 160.95 112.28 160.948C112.295 160.945 112.311 160.942 112.331 160.938C112.41 160.923 112.53 160.899 112.688 160.866C113.003 160.801 113.465 160.701 114.035 160.567C115.178 160.296 116.738 159.888 118.412 159.339C120.094 158.787 121.835 158.111 123.364 157.315C124.926 156.503 126.079 155.662 126.76 154.859C130.699 150.218 132.117 146.745 132.117 143.766C132.117 139.314 130.164 132.7 125.275 127.224C120.476 121.847 112.751 117.46 100.934 117.46C87.8771 117.46 79.7882 122.378 74.8704 128.028Z" fill="black"/>
<path fill-rule="evenodd" clip-rule="evenodd" d="M98.372 124.097C98.1672 124.101 97.9567 124.105 97.7403 124.11C95.7698 124.148 94.7128 124.401 94.2073 124.605C94.2128 124.62 94.2187 124.636 94.225 124.652C94.3253 124.907 94.4896 125.228 94.7314 125.612C95.1349 126.252 95.6691 126.934 96.259 127.621C98.9346 128.857 101.385 129.142 103.628 127.886C105.143 127.038 105.804 126.219 106.029 125.732C106.194 125.375 106.148 125.216 106.012 125.011L105.929 124.886L105.859 124.754C105.763 124.573 105.694 124.477 105.654 124.428C105.619 124.387 105.602 124.375 105.597 124.371L105.597 124.371L105.597 124.371C105.59 124.366 105.452 124.268 104.93 124.183C103.75 123.991 101.91 124.027 98.372 124.097ZM111.015 121.862C110.542 121 109.909 120.169 108.971 119.517C108.005 118.845 106.939 118.52 105.879 118.348C104.138 118.064 101.735 118.114 98.6496 118.178C98.3159 118.185 97.9742 118.192 97.6245 118.199C94.9778 118.251 92.7498 118.627 91.098 119.551C90.2262 120.039 89.4529 120.715 88.9179 121.622C88.3781 122.537 88.1857 123.511 88.2077 124.421C88.2488 126.112 89.0284 127.651 89.7304 128.764C90.4766 129.948 91.4082 131.068 92.2201 131.984L92.5988 132.41L93.1091 132.665C96.7384 134.48 101.64 135.775 106.516 133.044C108.696 131.824 110.474 130.204 111.394 128.215C112.353 126.142 112.276 123.845 111.015 121.862Z" fill="black"/>
</svg>
